<svg width="18" height="20" viewBox="0 0 18 20" fill="none" xmlns="http://www.w3.org/2000/svg">
<path fill-rule="evenodd" clip-rule="evenodd" d="M16 1.98992H15V0H13V1.98992H4.99999V0H3V1.98992H2C0.889999 1.98992 0 2.88539 0 3.97985V17.9093C0 19.0038 0.889999 19.8992 2 19.8992H16C17.1 19.8992 18 19.0038 18 17.9093V3.97985C18 2.88539 17.1 1.98992 16 1.98992ZM16 17.9093H2V6.96473H16V17.9093ZM3.5 10.9446C3.5 9.57153 4.61999 8.45718 5.99999 8.45718C7.37999 8.45718 8.49999 9.57153 8.49999 10.9446C8.49999 12.3176 7.37999 13.432 5.99999 13.432C4.61999 13.432 3.5 12.3176 3.5 10.9446Z" fill="black"/>
</svg>
