<svg width="19" height="21" viewBox="0 0 19 21" fill="none" xmlns="http://www.w3.org/2000/svg">
<path fill-rule="evenodd" clip-rule="evenodd" d="M12.6418 19.7088C12.5469 20.4042 11.958 20.9565 11.2553 20.9565H7.74132C7.03853 20.9565 6.44971 20.4042 6.36423 19.6576L6.10781 17.7246C5.85139 17.5814 5.60446 17.428 5.35754 17.2541L3.64805 17.9905C2.98325 18.2564 2.25197 17.9598 1.92907 17.3257L0.191093 14.0835C-0.141307 13.4085 0.00114998 12.6107 0.53299 12.1607L1.98605 10.9436C1.97655 10.7902 1.96706 10.6368 1.96706 10.4732C1.96706 10.3197 1.97655 10.1561 1.98605 10.0027L0.542487 8.78558C-0.0178443 8.32534 -0.160301 7.49689 0.191093 6.86278L1.94806 3.60015C2.27097 2.96603 3.00225 2.67965 3.64805 2.9558L5.36703 3.70242C5.61396 3.52855 5.86088 3.37514 6.10781 3.23195L6.36423 1.27846C6.44971 0.562523 7.03853 0 7.73182 0H11.2458C11.9485 0 12.5374 0.552295 12.6228 1.29892L12.8793 3.23195C13.1357 3.37514 13.3826 3.52855 13.6295 3.70242L15.339 2.96603C16.0133 2.70011 16.7446 2.99671 17.0675 3.63083L18.815 6.88323C19.1569 7.55826 19.0049 8.35602 18.4731 8.80604L17.0295 10.0231C17.039 10.1765 17.0485 10.33 17.0485 10.4936C17.0485 10.6572 17.039 10.8107 17.0295 10.9641L18.4731 12.1812C19.0049 12.6414 19.1569 13.4392 18.8245 14.0835L17.058 17.3768C16.7351 18.011 16.0038 18.2973 15.3485 18.0212L13.639 17.2848C13.3921 17.4587 13.1452 17.6121 12.8983 17.7553L12.6418 19.7088ZM8.18768 18.911H10.8089L11.1603 16.3029L11.6636 16.0779C12.0815 15.8938 12.4994 15.6279 12.9363 15.2802L13.3636 14.9324L15.6239 15.9143L16.9345 13.4596L15.0066 11.8437L15.0731 11.2709L15.0761 11.2434C15.1035 10.9873 15.1301 10.7397 15.1301 10.4732C15.1301 10.197 15.1016 9.93108 15.0731 9.67539L15.0066 9.10264L16.9345 7.48667L15.6144 5.03202L13.3446 6.01388L12.9173 5.65591C12.5184 5.32862 12.091 5.0627 11.6541 4.86838L11.1603 4.64337L10.8089 2.03531H8.18768L7.83629 4.64337L7.33294 4.85815C6.91507 5.05248 6.49719 5.30817 6.06032 5.66614L5.63295 6.00365L3.37263 5.03202L2.05253 7.47644L3.98045 9.09241L3.91397 9.66516C3.88548 9.93108 3.85699 10.2072 3.85699 10.4732C3.85699 10.7391 3.87598 11.0152 3.91397 11.2709L3.98045 11.8437L2.05253 13.4596L3.36314 15.9143L5.63295 14.9324L6.06032 15.2904C6.4687 15.6279 6.87708 15.8836 7.32344 16.0779L7.82679 16.3029L8.18768 18.911ZM12.8223 10.4732C12.8223 12.4502 11.3341 14.0528 9.49829 14.0528C7.66249 14.0528 6.17429 12.4502 6.17429 10.4732C6.17429 8.49614 7.66249 6.89346 9.49829 6.89346C11.3341 6.89346 12.8223 8.49614 12.8223 10.4732Z" fill="black"/>
</svg>
