<svg width="19" height="20" viewBox="0 0 19 20" fill="none" xmlns="http://www.w3.org/2000/svg">
<path fill-rule="evenodd" clip-rule="evenodd" d="M9.28571 0C4.16 0 0 4.48 0 10C0 15.52 4.16 20 9.28571 20C14.4114 20 18.5714 15.52 18.5714 10C18.5714 4.48 14.4114 0 9.28571 0ZM15.1914 14.83C13.8636 13.09 10.6414 12.5 9.28571 12.5C7.93 12.5 4.70786 13.09 3.38 14.83C2.43286 13.49 1.85714 11.82 1.85714 10C1.85714 5.59 5.19071 2 9.28571 2C13.3807 2 16.7143 5.59 16.7143 10C16.7143 11.82 16.1386 13.49 15.1914 14.83ZM6.03571 7.5C6.03571 5.56 7.48428 4 9.28571 4C11.0871 4 12.5357 5.56 12.5357 7.5C12.5357 9.44 11.0871 11 9.28571 11C7.48428 11 6.03571 9.44 6.03571 7.5Z" fill="black"/>
</svg>
