<svg width="21" height="21" viewBox="0 0 21 21" fill="none" xmlns="http://www.w3.org/2000/svg">
<path fill-rule="evenodd" clip-rule="evenodd" d="M13.6424 19.7494C13.5399 20.4463 12.9045 20.9998 12.1461 20.9998H8.354C7.59559 20.9998 6.96017 20.4463 6.86793 19.6982L6.59121 17.7611C6.31449 17.6177 6.04802 17.4639 5.78156 17.2897L3.93677 18.0276C3.21936 18.2941 2.4302 17.9969 2.08174 17.3614L0.206217 14.1126C-0.152491 13.4362 0.00124099 12.6368 0.575173 12.1858L2.14324 10.9662C2.13299 10.8125 2.12274 10.6587 2.12274 10.4948C2.12274 10.341 2.13299 10.177 2.14324 10.0233L0.585422 8.80371C-0.0192566 8.34251 -0.172988 7.51236 0.206217 6.87693L2.10224 3.60757C2.4507 2.97215 3.23986 2.68518 3.93677 2.9619L5.7918 3.71006C6.05827 3.53583 6.32474 3.3821 6.59121 3.23862L6.86793 1.2811C6.96017 0.563683 7.59559 0 8.34375 0H12.1358C12.8942 0 13.5296 0.553434 13.6219 1.3016L13.8986 3.23862C14.1753 3.3821 14.4418 3.53583 14.7082 3.71006L16.553 2.97215C17.2807 2.70568 18.0698 3.00289 18.4183 3.63832L20.3041 6.89743C20.673 7.57385 20.5091 8.37326 19.9351 8.8242L18.3773 10.0438C18.3876 10.1975 18.3978 10.3513 18.3978 10.5153C18.3978 10.6792 18.3876 10.833 18.3773 10.9867L19.9351 12.2063C20.5091 12.6675 20.673 13.4669 20.3143 14.1126L18.4081 17.4127C18.0596 18.0481 17.2704 18.3351 16.5633 18.0584L14.7185 17.3204C14.452 17.4947 14.1856 17.6484 13.9191 17.7919L13.6424 19.7494ZM8.83569 18.95H11.6644L12.0436 16.3366L12.5867 16.1111C13.0377 15.9266 13.4886 15.6601 13.9601 15.3117L14.4213 14.9632L16.8605 15.9471L18.2748 13.4874L16.1943 11.8681L16.2661 11.2942L16.2692 11.2666C16.2989 11.01 16.3276 10.7619 16.3276 10.4948C16.3276 10.218 16.2968 9.95157 16.2661 9.69535L16.1943 9.12142L18.2748 7.50211L16.8502 5.0424L14.4008 6.02629L13.9396 5.66758C13.5091 5.33962 13.0479 5.07315 12.5765 4.87842L12.0436 4.65295L11.6644 2.03951H8.83569L8.45649 4.65295L7.9133 4.86817C7.46236 5.0629 7.01141 5.31912 6.53997 5.67783L6.07877 6.01604L3.63956 5.0424L2.21498 7.49186L4.29548 9.11117L4.22374 9.6851C4.19299 9.95157 4.16225 10.2283 4.16225 10.4948C4.16225 10.7612 4.18275 11.0379 4.22374 11.2942L4.29548 11.8681L2.21498 13.4874L3.62931 15.9471L6.07877 14.9632L6.53997 15.3219C6.98066 15.6601 7.42136 15.9164 7.90305 16.1111L8.44624 16.3366L8.83569 18.95ZM13.8371 10.4948C13.8371 12.4758 12.2311 14.0818 10.25 14.0818C8.26894 14.0818 6.66295 12.4758 6.66295 10.4948C6.66295 8.51367 8.26894 6.90768 10.25 6.90768C12.2311 6.90768 13.8371 8.51367 13.8371 10.4948Z" fill="black"/>
</svg>
