<svg width="18" height="18" viewBox="0 0 18 18" fill="none" xmlns="http://www.w3.org/2000/svg">
<path fill-rule="evenodd" clip-rule="evenodd" d="M12.1028 10.5693L17.9998 16.4663L16.4663 17.9998L10.5693 12.1028C9.46814 12.8952 8.14054 13.3789 6.68945 13.3789C2.99481 13.3789 0 10.3841 0 6.68945C0 2.99481 2.99481 0 6.68945 0C10.3841 0 13.3789 2.99481 13.3789 6.68945C13.3789 8.14054 12.8952 9.46814 12.1028 10.5693ZM6.68945 2.05829C4.12688 2.05829 2.05829 4.12688 2.05829 6.68945C2.05829 9.25202 4.12688 11.3206 6.68945 11.3206C9.25202 11.3206 11.3206 9.25202 11.3206 6.68945C11.3206 4.12688 9.25202 2.05829 6.68945 2.05829Z" fill="#49454F"/>
</svg>
