<svg width="17" height="20" viewBox="0 0 17 20" fill="none" xmlns="http://www.w3.org/2000/svg">
<path fill-rule="evenodd" clip-rule="evenodd" d="M14.9323 1.99999H13.999V0H12.1325V1.99999H4.66633V0H2.7998V1.99999H1.86653C0.830607 1.99999 0 2.89998 0 3.99998V17.9999C0 19.0999 0.830607 19.9999 1.86653 19.9999H14.9323C15.9589 19.9999 16.7988 19.0999 16.7988 17.9999V3.99998C16.7988 2.89998 15.9589 1.99999 14.9323 1.99999ZM14.9323 17.9999H1.86653V6.99996H14.9323V17.9999ZM3.26643 10.9999C3.26643 9.61994 4.31169 8.49995 5.5996 8.49995C6.88751 8.49995 7.93277 9.61994 7.93277 10.9999C7.93277 12.3799 6.88751 13.4999 5.5996 13.4999C4.31169 13.4999 3.26643 12.3799 3.26643 10.9999Z" fill="black"/>
</svg>
