<svg width="19" height="21" viewBox="0 0 19 21" fill="none" xmlns="http://www.w3.org/2000/svg">
<path fill-rule="evenodd" clip-rule="evenodd" d="M12.6418 19.7086C12.5468 20.4041 11.958 20.9564 11.2552 20.9564H7.74127C7.03848 20.9564 6.44966 20.4041 6.36419 19.6575L6.10777 17.7245C5.85135 17.5813 5.60442 17.4279 5.3575 17.254L3.64803 17.9904C2.98323 18.2563 2.25196 17.9597 1.92906 17.3256L0.191091 14.0834C-0.141306 13.4084 0.00114997 12.6107 0.532986 12.1606L1.98604 10.9436C1.97654 10.7901 1.96704 10.6367 1.96704 10.4731C1.96704 10.3197 1.97654 10.156 1.98604 10.0026L0.542483 8.78553C-0.0178442 8.32528 -0.1603 7.49684 0.191091 6.86273L1.94805 3.60012C2.27095 2.96601 3.00223 2.67964 3.64803 2.95578L5.367 3.7024C5.61392 3.52853 5.86085 3.37511 6.10777 3.23193L6.36419 1.27845C6.44966 0.562519 7.03848 0 7.73177 0H11.2457C11.9485 0 12.5373 0.552291 12.6228 1.29891L12.8792 3.23193C13.1356 3.37511 13.3825 3.52853 13.6295 3.7024L15.3389 2.96601C16.0132 2.70009 16.7445 2.99669 17.0674 3.6308L18.8149 6.88319C19.1568 7.55821 19.0048 8.35596 18.473 8.80598L17.0294 10.0231C17.0389 10.1765 17.0484 10.3299 17.0484 10.4935C17.0484 10.6572 17.0389 10.8106 17.0294 10.964L18.473 12.1811C19.0048 12.6413 19.1568 13.4391 18.8244 14.0834L17.0579 17.3767C16.735 18.0108 16.0037 18.2972 15.3484 18.0211L13.6389 17.2847C13.392 17.4585 13.1451 17.612 12.8982 17.7551L12.6418 19.7086ZM8.18763 18.9109H10.8088L11.1602 16.3028L11.6636 16.0778C12.0814 15.8937 12.4993 15.6278 12.9362 15.2801L13.3635 14.9323L15.6238 15.9142L16.9344 13.4595L15.0065 11.8436L15.073 11.2708L15.076 11.2433C15.1034 10.9872 15.13 10.7397 15.13 10.4731C15.13 10.1969 15.1015 9.93102 15.073 9.67533L15.0065 9.10258L16.9344 7.48662L15.6143 5.03199L13.3445 6.01384L12.9172 5.65587C12.5183 5.32859 12.0909 5.06267 11.6541 4.86835L11.1602 4.64334L10.8088 2.0353H8.18763L7.83624 4.64334L7.33289 4.85812C6.91502 5.05244 6.49715 5.30813 6.06028 5.6661L5.63292 6.00361L3.37261 5.03199L2.05252 7.47639L3.98042 9.09235L3.91395 9.6651C3.88545 9.93102 3.85696 10.2072 3.85696 10.4731C3.85696 10.739 3.87596 11.0151 3.91395 11.2708L3.98042 11.8436L2.05252 13.4595L3.36311 15.9142L5.63292 14.9323L6.06028 15.2903C6.46866 15.6278 6.87703 15.8835 7.3234 16.0778L7.82674 16.3028L8.18763 18.9109ZM12.8222 10.4731C12.8222 12.4501 11.334 14.0527 9.49823 14.0527C7.66244 14.0527 6.17425 12.4501 6.17425 10.4731C6.17425 8.49609 7.66244 6.89342 9.49823 6.89342C11.334 6.89342 12.8222 8.49609 12.8222 10.4731Z" fill="black"/>
</svg>
